# xmcd
#
# Track frame offsets:
#	150
#	22538
#	48136
#	67870
#	87304
#	108306
#	133328
#	152281
#
# Disc length: 2268 seconds
#
# Revision: 1
# Processed by: cddbd v1.5PL3 Copyright (c) Steve Scherf et al.
# Submitted via: EasyCDDAExtractor 6.2.0.3
#
DISCID=5108da08
DTITLE=김목경 - Vol.1 Vintage
DYEAR=1900
DGENRE=Blues
TTITLE0=내가본 마지막 그녀
TTITLE1=추억의 눈길
TTITLE2=나와 결혼해줘
TTITLE3=내 인생
TTITLE4=Mr. Clapton
TTITLE5=Tear Drop On My Face
TTITLE6=My Little Baby
TTITLE7=어느 60대 노부부의 이야기
EXTD=
EXTT0=
EXTT1=
EXTT2=
EXTT3=
EXTT4=
EXTT5=
EXTT6=
EXTT7=
PLAYORDER=
